#!OML:ASF H:\Male1\Project 1\Capture day 1\Session 1\Male1.ASF
:FULLY-SPECIFIED
:DEGREES
287
root 16.6998 15.4546 -1.68014 7.36317 -97.5891 -10.1993
lowerback 5.4119 0.268988 0.24945
upperback 3.47172 0.284574 -0.326905
thorax 0.537072 0.113524 -0.489237
lowerneck -3.84972 3.87881 7.64597
upperneck 0.574935 5.01116 -13.0891
head 1.34555 2.31064 -5.06153
rclavicle 5.09386e-015 6.4605e-015
rhumerus -41.1166 25.145 -92.2347
rradius 41.2295
rwrist -23.027
rhand -17.4298 1.62408
rfingers 7.12502
rthumb 8.82065 -28.1716
lclavicle 5.09386e-015 6.4605e-015
lhumerus 33.614 -21.8347 20.8119
lradius 78.3901
lwrist -13.8477
lhand -54.6511 11.3482
lfingers 7.12502
lthumb -27.0464 39.4314
rfemur -3.36579 10.6487 22.3397
rtibia 23.6384
rfoot -26.5459 -26.9795
rtoes -22.3146
lfemur 2.45972 -17.9067 -19.291
ltibia 18.0269
lfoot -24.5847 31.407
ltoes 1.81332
288
root 16.6986 15.4575 -1.6879 8.29011 -97.0541 -11.113
lowerback 5.4414 0.16703 0.142529
upperback 3.4011 0.1472 -0.212301
thorax 0.445883 0.0430707 -0.305198
lowerneck -3.96711 4.09121 7.68524
upperneck 0.62644 5.29882 -13.3969
head 1.42154 2.44157 -5.14922
rclavicle -3.37934e-015 3.97569e-016
rhumerus -41.1279 25.7967 -92.6822
rradius 41.4068
rwrist -23.1514
rhand -17.5051 1.66685
rfingers 7.12502
rthumb 8.74792 -28.1319
lclavicle -3.37934e-015 3.97569e-016
lhumerus 37.2482 -21.2403 19.4273
lradius 78.7936
lwrist -13.6732
lhand -54.8175 9.75785
lfingers 7.12502
lthumb -27.2056 37.8162
rfemur -3.20429 10.4192 22.3608
rtibia 23.4494
rfoot -26.9211 -27.2173
rtoes -21.6088
lfemur 2.27621 -18.2959 -19.2642
ltibia 18.1537
lfoot -24.4737 31.2146
ltoes 1.95169
289
root 16.7012 15.4604 -1.69287 9.31199 -96.5423 -12.0568
lowerback 5.54014 0.0678465 0.0403156
upperback 3.25794 0.0155565 -0.0892019
thorax 0.242794 -0.023566 -0.115049
lowerneck -3.89787 4.06349 7.53102
upperneck 0.748684 5.28325 -13.6299
head 1.44731 2.42634 -5.19647
rclavicle 9.14409e-015 7.95139e-016
rhumerus -41.2272 26.3972 -93.1589
rradius 41.6305
rwrist -23.227
rhand -17.5471 1.97437
rfingers 7.12502
rthumb 8.70742 -27.826
lclavicle 9.14409e-015 7.95139e-016
lhumerus 40.8532 -20.2095 18.3392
lradius 78.8697
lwrist -13.7556
lhand -54.6915 10.8399
lfingers 7.12502
lthumb -27.085 38.9171
rfemur -3.16263 10.151 22.3569
rtibia 23.3228
rfoot -27.3168 -27.3591
rtoes -20.6475
lfemur 2.03011 -18.5973 -19.2041
ltibia 18.2281
lfoot -24.2179 31.0396
ltoes 1.72051
290
root 16.703 15.4605 -1.69605 10.25 -96.1376 -12.9811
lowerback 5.56927 -0.0110857 -0.0920401
upperback 3.22294 -0.0938407 0.0422855
thorax 0.190731 -0.0805735 0.0998321
lowerneck -3.72256 4.06736 7.46403
upperneck 0.620334 5.28765 -14.0063
head 1.39162 2.42779 -5.30568
rclavicle 8.29926e-015 -5.56597e-015
rhumerus -41.2606 27.0874 -93.5931
rradius 41.9112
rwrist -23.1875
rhand -17.4803 2.19219
rfingers 7.12502
rthumb 8.77191 -27.6055
lclavicle 8.29926e-015 -5.56597e-015
lhumerus 44.3258 -18.6421 17.5884
lradius 78.6264
lwrist -14.0067
lhand -54.2604 9.73691
lfingers 7.12502
lthumb -26.6725 37.8776
rfemur -3.07951 9.84851 22.3403
rtibia 23.2191
rfoot -27.6126 -27.395
rtoes -19.833
lfemur 1.89155 -18.8211 -19.1845
ltibia 18.2905
lfoot -23.9623 30.9026
ltoes 1.53306
291
root 16.7009 15.4599 -1.6993 10.6483 -95.8591 -13.4527
lowerback 5.54258 -0.041384 -0.196754
upperback 3.31162 -0.141209 0.164728
thorax 0.297417 -0.108037 0.286409
lowerneck -3.58056 4.07378 7.36553
upperneck 0.40972 5.28422 -14.2731
head 1.31244 2.42902 -5.37613
rclavicle -9.56651e-015 3.37934e-015
rhumerus -41.1698 27.767 -93.9222
rradius 42.2325
rwrist -22.8945
rhand -17.5812 1.97717
rfingers 7.12502
rthumb 8.67452 -27.8246
lclavicle -9.56651e-015 3.37934e-015
lhumerus 47.6746 -16.5567 17.1878
lradius 78.1382
lwrist -13.7376
lhand -55.0478 11.4831
lfingers 7.12502
lthumb -27.4259 39.5068
rfemur -2.90215 9.57731 22.3739
rtibia 23.1207
rfoot -27.8047 -27.3919
rtoes -19.493
lfemur 1.89526 -19.1039 -19.1944
ltibia 18.3614
lfoot -23.8079 30.9363
ltoes 1.17601
292
root 16.6996 15.4621 -1.70626 10.0306 -95.7233 -12.831
lowerback 5.52659 0.0178528 -0.199573
upperback 3.36051 -0.063781 0.240188
thorax 0.356195 -0.0708014 0.361322
lowerneck -3.55972 4.04842 7.3175
upperneck 0.324001 5.24312 -14.3601
head 1.28109 2.40909 -5.39766
rclavicle -7.85199e-015 5.96354e-016
rhumerus -41.1348 28.2803 -94.3413
rradius 42.62
rwrist -22.7973
rhand -17.9289 2.16028
rfingers 7.12502
rthumb 8.339 -27.6551
lclavicle -7.85199e-015 5.96354e-016
lhumerus 50.742 -14.3613 16.7197
lradius 77.504
lwrist -13.4306
lhand -55.5829 12.2326
lfingers 7.12502
lthumb -27.9375 40.1741
rfemur -2.83426 9.51643 22.52
rtibia 23.0398
rfoot -27.9183 -27.4846
rtoes -19.5402
lfemur 1.86038 -19.3508 -19.0801
ltibia 18.4082
lfoot -23.7683 31.017
ltoes 0.926604
293
root 16.7017 15.4649 -1.71476 8.57834 -95.7302 -11.3006
lowerback 5.5625 0.130382 -0.137803
upperback 3.34893 0.0890512 0.297748
thorax 0.323196 0.00611302 0.37792
lowerneck -3.61931 4.03737 7.35514
upperneck 0.333421 5.22583 -14.4528
head 1.29586 2.39626 -5.43222
rclavicle 2.08724e-015 7.95139e-016
rhumerus -41.2184 28.7135 -94.8521
rradius 43.0939
rwrist -22.982
rhand -17.6137 2.56861
rfingers 7.12502
rthumb 8.64311 -27.2345
lclavicle 2.08724e-015 7.95139e-016
lhumerus 53.4401 -11.9421 16.5359
lradius 76.4494
lwrist -12.7971
lhand -56.4877 7.08264
lfingers 7.12502
lthumb -28.8022 34.8802
rfemur -2.88748 9.61379 22.7322
rtibia 22.9548
rfoot -27.8509 -27.6821
rtoes -19.8431
lfemur 1.78938 -19.594 -18.8841
ltibia 18.4466
lfoot -23.929 31.0901
ltoes 1.09492
294
root 16.7042 15.468 -1.7226 7.61451 -95.8151 -10.2462
lowerback 5.61334 0.228762 -0.166286
upperback 3.34685 0.218471 0.385498
thorax 0.291415 0.069512 0.477111
lowerneck -3.72427 4.06446 7.2447
upperneck 0.348219 5.26284 -14.5108
head 1.32084 2.40774 -5.42814
rclavicle 7.45443e-016 -2.98177e-015
rhumerus -41.3159 29.2318 -95.288
rradius 43.5855
rwrist -22.9408
rhand -17.4548 2.18594
rfingers 7.12502
rthumb 8.79644 -27.6107
lclavicle 7.45443e-016 -2.98177e-015
lhumerus 55.7699 -9.41047 16.8399
lradius 75.0912
lwrist -12.4403
lhand -57.1827 7.03217
lfingers 7.12502
lthumb -29.466 34.7148
rfemur -2.97155 9.68617 22.869
rtibia 22.8691
rfoot -27.6429 -27.8631
rtoes -20.2372
lfemur 1.71749 -19.8351 -18.756
ltibia 18.4859
lfoot -24.1992 31.1651
ltoes 1.34042
295
root 16.7072 15.4698 -1.73012 6.37354 -95.9448 -8.93077
lowerback 5.72423 0.343514 -0.159817
upperback 3.33882 0.371049 0.499158
thorax 0.219472 0.144667 0.581569
lowerneck -3.77556 4.05914 6.96539
upperneck 0.346987 5.26124 -14.4268
head 1.31875 2.40431 -5.35425
rclavicle -1.35422e-014 5.96354e-015
rhumerus -41.4546 29.6686 -95.6574
rradius 44.0954
rwrist -22.6886
rhand -14.7988 -0.679938
rfingers 7.12502
rthumb 11.3588 -30.3523
lclavicle -1.35422e-014 5.96354e-015
lhumerus 57.7576 -6.88207 17.5573
lradius 73.6546
lwrist -12.1763
lhand -58.3108 7.85685
lfingers 7.12502
lthumb -30.5423 35.3445
rfemur -3.08244 9.78671 23.0357
rtibia 22.8668
rfoot -27.541 -27.925
rtoes -20.1455
lfemur 1.68664 -19.9553 -18.5869
ltibia 18.451
lfoot -24.2927 31.2359
ltoes 1.29741
